<svg width="17" height="17" viewBox="0 0 17 17" fill="none" xmlns="http://www.w3.org/2000/svg">
<path d="M9.50004 3C10.6336 2.99974 11.7474 3.2959 12.7311 3.85909C13.7148 4.42228 14.5341 5.23293 15.1078 6.21058C15.6814 7.18823 15.9894 8.29889 16.0012 9.43234C16.013 10.5658 15.7282 11.6826 15.175 12.672L15.971 14.754C16.0372 14.9271 16.054 15.1151 16.0195 15.2972C15.9851 15.4792 15.9007 15.6481 15.7758 15.785C15.6509 15.9219 15.4905 16.0214 15.3124 16.0725C15.1342 16.1235 14.9455 16.124 14.767 16.074L12.279 15.377C11.3981 15.7933 10.4348 16.0061 9.46039 15.9999C8.48603 15.9936 7.52555 15.7684 6.64999 15.3408C5.77443 14.9132 5.00619 14.2943 4.40211 13.5298C3.79803 12.7653 3.37356 11.8747 3.1601 10.924C2.94663 9.97328 2.94964 8.98674 3.1689 8.03735C3.38816 7.08796 3.81805 6.20001 4.42679 5.43919C5.03552 4.67836 5.80752 4.06412 6.68567 3.64191C7.56382 3.2197 8.52566 3.00032 9.50004 3Z" fill="url(#paint0_radial_154_46)"/>
<path d="M6.53802 2.05208e-08C5.40459 -9.00304e-05 4.29084 0.296197 3.30728 0.859462C2.32372 1.42273 1.50454 2.23339 0.931029 3.21101C0.357517 4.18863 0.0496064 5.29922 0.0378516 6.43259C0.0260967 7.56595 0.310906 8.6827 0.864018 9.672L0.0680185 11.754C0.00184743 11.9271 -0.0149378 12.1151 0.0195356 12.2972C0.0540089 12.4792 0.138385 12.6481 0.263251 12.785C0.388117 12.9219 0.548561 13.0214 0.726685 13.0725C0.904809 13.1235 1.09361 13.124 1.27202 13.074L3.75902 12.377C4.63997 12.7932 5.60323 13.0061 6.57754 12.9999C7.55186 12.9936 8.51231 12.7684 9.38785 12.3409C10.2634 11.9134 11.0316 11.2945 11.6357 10.5301C12.2398 9.76561 12.6643 8.87513 12.8779 7.92448C13.0914 6.97382 13.0885 5.98733 12.8693 5.03796C12.6501 4.08859 12.2204 3.20064 11.6117 2.43977C11.0031 1.67891 10.2312 1.0646 9.35318 0.642292C8.47512 0.219983 7.51236 0.000473115 6.53802 2.05208e-08Z" fill="url(#paint1_linear_154_46)"/>
<path d="M6.49299 4.02505C6.13499 4.09505 5.74299 4.32705 5.43499 4.87105C5.36935 4.98642 5.26057 5.07099 5.13258 5.10615C5.00458 5.14131 4.86786 5.12419 4.75249 5.05855C4.63712 4.99291 4.55256 4.88413 4.51739 4.75613C4.48223 4.62814 4.49935 4.49142 4.56499 4.37605C5.00599 3.60105 5.63299 3.17405 6.30099 3.04305C6.92268 2.92585 7.56556 3.05572 8.09299 3.40505C8.57699 3.72505 8.96799 4.24805 8.97999 4.87505C8.99299 5.53005 8.59499 6.12005 7.86099 6.55405C7.36299 6.84905 7.16899 7.04905 7.08599 7.18205C7.01599 7.29305 6.99999 7.39505 6.99999 7.62405C6.99999 7.75666 6.94732 7.88383 6.85355 7.9776C6.75978 8.07137 6.6326 8.12405 6.49999 8.12405C6.36739 8.12405 6.24021 8.07137 6.14644 7.9776C6.05267 7.88383 5.99999 7.75666 5.99999 7.62405C5.99999 7.35205 6.01399 7.01305 6.23699 6.65405C6.44699 6.31705 6.80599 6.01605 7.35199 5.69405C7.88699 5.37705 7.98399 5.07505 7.98099 4.89505C7.97599 4.68905 7.83899 4.43505 7.54099 4.23905C7.2325 4.03483 6.85686 3.95813 6.49299 4.02505ZM6.74999 10.624C6.55108 10.624 6.36032 10.545 6.21966 10.4044C6.07901 10.2637 5.99999 10.073 5.99999 9.87405C5.99999 9.67514 6.07901 9.48437 6.21966 9.34372C6.36032 9.20307 6.55108 9.12405 6.74999 9.12405C6.94891 9.12405 7.13967 9.20307 7.28032 9.34372C7.42098 9.48437 7.49999 9.67514 7.49999 9.87405C7.49999 10.073 7.42098 10.2637 7.28032 10.4044C7.13967 10.545 6.94891 10.624 6.74999 10.624Z" fill="url(#paint2_linear_154_46)"/>
<defs>
<radialGradient id="paint0_radial_154_46" cx="0" cy="0" r="1" gradientUnits="userSpaceOnUse" gradientTransform="translate(6.50004 6.5) rotate(49.3987) scale(9.21954)">
<stop offset="0.63" stop-color="#3D35B1"/>
<stop offset="0.85" stop-color="#6553C9"/>
<stop offset="1" stop-color="#7660D3"/>
</radialGradient>
<linearGradient id="paint1_linear_154_46" x1="1.82776e-05" y1="1.17528e-07" x2="13.112" y2="13.038" gradientUnits="userSpaceOnUse">
<stop stop-color="#0FAFFF"/>
<stop offset="1" stop-color="#2764E7"/>
</linearGradient>
<linearGradient id="paint2_linear_154_46" x1="4.89199" y1="3.13405" x2="6.95699" y2="10.956" gradientUnits="userSpaceOnUse">
<stop stop-color="#FDFDFD"/>
<stop offset="1" stop-color="#CCEAFF"/>
</linearGradient>
</defs>
</svg>
