<svg width="18" height="18" viewBox="0 0 18 18" fill="none" xmlns="http://www.w3.org/2000/svg">
<path d="M12 11H18V14.75C18 15.612 17.6576 16.4386 17.0481 17.0481C16.4386 17.6576 15.612 18 14.75 18H12V11Z" fill="url(#paint0_linear_154_88)"/>
<path d="M0 2.25C0 1.65326 0.237053 1.08097 0.65901 0.65901C1.08097 0.237053 1.65326 0 2.25 0H11.75C12.3467 0 12.919 0.237053 13.341 0.65901C13.7629 1.08097 14 1.65326 14 2.25V18H3.25C2.38805 18 1.5614 17.6576 0.951903 17.0481C0.34241 16.4386 0 15.612 0 14.75V2.25Z" fill="url(#paint1_linear_154_88)"/>
<path d="M3.5 4.75C3.5 4.55109 3.57902 4.36032 3.71967 4.21967C3.86032 4.07902 4.05109 4 4.25 4H9.75C9.94891 4 10.1397 4.07902 10.2803 4.21967C10.421 4.36032 10.5 4.55109 10.5 4.75C10.5 4.94891 10.421 5.13968 10.2803 5.28033C10.1397 5.42098 9.94891 5.5 9.75 5.5H4.25C4.05109 5.5 3.86032 5.42098 3.71967 5.28033C3.57902 5.13968 3.5 4.94891 3.5 4.75Z" fill="url(#paint2_linear_154_88)"/>
<path d="M3.5 4.75C3.5 4.55109 3.57902 4.36032 3.71967 4.21967C3.86032 4.07902 4.05109 4 4.25 4H9.75C9.94891 4 10.1397 4.07902 10.2803 4.21967C10.421 4.36032 10.5 4.55109 10.5 4.75C10.5 4.94891 10.421 5.13968 10.2803 5.28033C10.1397 5.42098 9.94891 5.5 9.75 5.5H4.25C4.05109 5.5 3.86032 5.42098 3.71967 5.28033C3.57902 5.13968 3.5 4.94891 3.5 4.75Z" fill="url(#paint3_linear_154_88)"/>
<path d="M3.5 8.75C3.5 8.55109 3.57902 8.36032 3.71967 8.21967C3.86032 8.07902 4.05109 8 4.25 8H9.75C9.94891 8 10.1397 8.07902 10.2803 8.21967C10.421 8.36032 10.5 8.55109 10.5 8.75C10.5 8.94891 10.421 9.13968 10.2803 9.28033C10.1397 9.42098 9.94891 9.5 9.75 9.5H4.25C4.05109 9.5 3.86032 9.42098 3.71967 9.28033C3.57902 9.13968 3.5 8.94891 3.5 8.75Z" fill="url(#paint4_linear_154_88)"/>
<path d="M3.5 8.75C3.5 8.55109 3.57902 8.36032 3.71967 8.21967C3.86032 8.07902 4.05109 8 4.25 8H9.75C9.94891 8 10.1397 8.07902 10.2803 8.21967C10.421 8.36032 10.5 8.55109 10.5 8.75C10.5 8.94891 10.421 9.13968 10.2803 9.28033C10.1397 9.42098 9.94891 9.5 9.75 9.5H4.25C4.05109 9.5 3.86032 9.42098 3.71967 9.28033C3.57902 9.13968 3.5 8.94891 3.5 8.75Z" fill="url(#paint5_linear_154_88)"/>
<path d="M3.5 12.75C3.5 12.5511 3.57902 12.3603 3.71967 12.2197C3.86032 12.079 4.05109 12 4.25 12H7.25C7.44891 12 7.63968 12.079 7.78033 12.2197C7.92098 12.3603 8 12.5511 8 12.75C8 12.9489 7.92098 13.1397 7.78033 13.2803C7.63968 13.421 7.44891 13.5 7.25 13.5H4.25C4.05109 13.5 3.86032 13.421 3.71967 13.2803C3.57902 13.1397 3.5 12.9489 3.5 12.75Z" fill="url(#paint6_linear_154_88)"/>
<path d="M3.5 12.75C3.5 12.5511 3.57902 12.3603 3.71967 12.2197C3.86032 12.079 4.05109 12 4.25 12H7.25C7.44891 12 7.63968 12.079 7.78033 12.2197C7.92098 12.3603 8 12.5511 8 12.75C8 12.9489 7.92098 13.1397 7.78033 13.2803C7.63968 13.421 7.44891 13.5 7.25 13.5H4.25C4.05109 13.5 3.86032 13.421 3.71967 13.2803C3.57902 13.1397 3.5 12.9489 3.5 12.75Z" fill="url(#paint7_linear_154_88)"/>
<defs>
<linearGradient id="paint0_linear_154_88" x1="18" y1="13.8" x2="12.346" y2="15.199" gradientUnits="userSpaceOnUse">
<stop stop-color="#FE8401"/>
<stop offset="1" stop-color="#CA6407"/>
</linearGradient>
<linearGradient id="paint1_linear_154_88" x1="2.545" y1="0.643" x2="8.378" y2="17.965" gradientUnits="userSpaceOnUse">
<stop stop-color="#FFE06B"/>
<stop offset="0.645" stop-color="#FFB357"/>
<stop offset="1" stop-color="#FF921F"/>
</linearGradient>
<linearGradient id="paint2_linear_154_88" x1="2.6" y1="12" x2="3.383" y2="14.818" gradientUnits="userSpaceOnUse">
<stop stop-color="#FF921F"/>
<stop offset="1" stop-color="#CA6407"/>
</linearGradient>
<linearGradient id="paint3_linear_154_88" x1="2.1" y1="4" x2="11.641" y2="12.436" gradientUnits="userSpaceOnUse">
<stop stop-color="#FF921F"/>
<stop offset="1" stop-color="#CA6407"/>
</linearGradient>
<linearGradient id="paint4_linear_154_88" x1="2.6" y1="12" x2="3.383" y2="14.818" gradientUnits="userSpaceOnUse">
<stop stop-color="#FF921F"/>
<stop offset="1" stop-color="#CA6407"/>
</linearGradient>
<linearGradient id="paint5_linear_154_88" x1="2.1" y1="4" x2="11.641" y2="12.436" gradientUnits="userSpaceOnUse">
<stop stop-color="#FF921F"/>
<stop offset="1" stop-color="#CA6407"/>
</linearGradient>
<linearGradient id="paint6_linear_154_88" x1="2.6" y1="12" x2="3.383" y2="14.818" gradientUnits="userSpaceOnUse">
<stop stop-color="#FF921F"/>
<stop offset="1" stop-color="#CA6407"/>
</linearGradient>
<linearGradient id="paint7_linear_154_88" x1="2.1" y1="4" x2="11.641" y2="12.436" gradientUnits="userSpaceOnUse">
<stop stop-color="#FF921F"/>
<stop offset="1" stop-color="#CA6407"/>
</linearGradient>
</defs>
</svg>
