<svg width="12" height="16" viewBox="0 0 12 16" fill="none" xmlns="http://www.w3.org/2000/svg">
<path d="M0.5 13H12C12 13 11.5 13.5 11.5 14.5C11.5 15.5 12 15.5 12 15.5H1.5C1.23478 15.5 0.98043 15.3946 0.792893 15.2071C0.605357 15.0196 0.5 14.7652 0.5 14.5V13Z" fill="url(#paint0_linear_154_24)"/>
<path d="M0 2V14C0 14.5304 0.210714 15.0391 0.585786 15.4142C0.960859 15.7893 1.46957 16 2 16H11.5C11.6326 16 11.7598 15.9473 11.8536 15.8536C11.9473 15.7598 12 15.6326 12 15.5C12 15.3674 11.9473 15.2402 11.8536 15.1464C11.7598 15.0527 11.6326 15 11.5 15H2C1.73478 15 1.48043 14.8946 1.29289 14.7071C1.10536 14.5196 1 14.2652 1 14H11C11.2652 14 11.5196 13.8946 11.7071 13.7071C11.8946 13.5196 12 13.2652 12 13V2C12 1.46957 11.7893 0.960859 11.4142 0.585786C11.0391 0.210714 10.5304 0 10 0H2C1.46957 0 0.960859 0.210714 0.585786 0.585786C0.210714 0.960859 0 1.46957 0 2Z" fill="url(#paint1_linear_154_24)"/>
<path d="M0 2V14C0 14.5304 0.210714 15.0391 0.585786 15.4142C0.960859 15.7893 1.46957 16 2 16H11.5C11.6326 16 11.7598 15.9473 11.8536 15.8536C11.9473 15.7598 12 15.6326 12 15.5C12 15.3674 11.9473 15.2402 11.8536 15.1464C11.7598 15.0527 11.6326 15 11.5 15H2C1.73478 15 1.48043 14.8946 1.29289 14.7071C1.10536 14.5196 1 14.2652 1 14H11C11.2652 14 11.5196 13.8946 11.7071 13.7071C11.8946 13.5196 12 13.2652 12 13V2C12 1.46957 11.7893 0.960859 11.4142 0.585786C11.0391 0.210714 10.5304 0 10 0H2C1.46957 0 0.960859 0.210714 0.585786 0.585786C0.210714 0.960859 0 1.46957 0 2Z" fill="url(#paint2_radial_154_24)" fill-opacity="0.3"/>
<path d="M0 2V14C0 14.5304 0.210714 15.0391 0.585786 15.4142C0.960859 15.7893 1.46957 16 2 16H11.5C11.6326 16 11.7598 15.9473 11.8536 15.8536C11.9473 15.7598 12 15.6326 12 15.5C12 15.3674 11.9473 15.2402 11.8536 15.1464C11.7598 15.0527 11.6326 15 11.5 15H2C1.73478 15 1.48043 14.8946 1.29289 14.7071C1.10536 14.5196 1 14.2652 1 14H11C11.2652 14 11.5196 13.8946 11.7071 13.7071C11.8946 13.5196 12 13.2652 12 13V2C12 1.46957 11.7893 0.960859 11.4142 0.585786C11.0391 0.210714 10.5304 0 10 0H2C1.46957 0 0.960859 0.210714 0.585786 0.585786C0.210714 0.960859 0 1.46957 0 2Z" fill="url(#paint3_radial_154_24)" fill-opacity="0.3"/>
<path d="M0 2V14C0 14.5304 0.210714 15.0391 0.585786 15.4142C0.960859 15.7893 1.46957 16 2 16H11.5C11.6326 16 11.7598 15.9473 11.8536 15.8536C11.9473 15.7598 12 15.6326 12 15.5C12 15.3674 11.9473 15.2402 11.8536 15.1464C11.7598 15.0527 11.6326 15 11.5 15H2C1.73478 15 1.48043 14.8946 1.29289 14.7071C1.10536 14.5196 1 14.2652 1 14H11C11.2652 14 11.5196 13.8946 11.7071 13.7071C11.8946 13.5196 12 13.2652 12 13V2C12 1.46957 11.7893 0.960859 11.4142 0.585786C11.0391 0.210714 10.5304 0 10 0H2C1.46957 0 0.960859 0.210714 0.585786 0.585786C0.210714 0.960859 0 1.46957 0 2Z" fill="url(#paint4_radial_154_24)" fill-opacity="0.3"/>
<path d="M6.45403 3.28992C6.41389 3.20347 6.34987 3.13029 6.26953 3.07901C6.18918 3.02773 6.09585 3.00049 6.00053 3.00049C5.90521 3.00049 5.81188 3.02773 5.73153 3.07901C5.65119 3.13029 5.58717 3.20347 5.54703 3.28992L4.72503 5.05992L2.78803 5.29392C2.69334 5.30537 2.60391 5.34365 2.53027 5.40426C2.45663 5.46488 2.40186 5.54528 2.37243 5.636C2.34299 5.72672 2.34012 5.82397 2.36415 5.91627C2.38817 6.00857 2.4381 6.09207 2.50803 6.15692L3.93703 7.48492L3.56003 9.39992C3.54168 9.49348 3.55047 9.59033 3.58535 9.67906C3.62023 9.76779 3.67975 9.8447 3.75689 9.90072C3.83404 9.95674 3.92559 9.98953 4.02076 9.99524C4.11593 10.0009 4.21074 9.97932 4.29403 9.93292L6.00003 8.98492L7.70603 9.93292C7.78929 9.97903 7.88398 10.0004 7.97898 9.99457C8.07397 9.98872 8.16533 9.95588 8.2423 9.8999C8.31928 9.84393 8.37868 9.76715 8.41353 9.67858C8.44838 9.59002 8.45722 9.49334 8.43903 9.39992L8.06403 7.48492L9.49403 6.15692C9.56399 6.092 9.6139 6.00842 9.63788 5.91605C9.66186 5.82367 9.6589 5.72636 9.62935 5.63561C9.5998 5.54486 9.5449 5.46447 9.47113 5.40392C9.39736 5.34337 9.3078 5.30521 9.21303 5.29392L7.27603 5.05892L6.45403 3.28992Z" fill="url(#paint5_linear_154_24)"/>
<defs>
<linearGradient id="paint0_linear_154_24" x1="6" y1="15" x2="6" y2="13" gradientUnits="userSpaceOnUse">
<stop stop-color="#9DEAFF"/>
<stop offset="0.716" stop-color="#58AAFE"/>
</linearGradient>
<linearGradient id="paint1_linear_154_24" x1="4.14" y1="2.994" x2="6.759" y2="20.178" gradientUnits="userSpaceOnUse">
<stop stop-color="#20AC9D"/>
<stop offset="1" stop-color="#2052CB"/>
</linearGradient>
<radialGradient id="paint2_radial_154_24" cx="0" cy="0" r="1" gradientUnits="userSpaceOnUse" gradientTransform="translate(6.5 9) rotate(36.8699) scale(2.5 1.21094)">
<stop stop-color="#171155"/>
<stop offset="1" stop-color="#4A43CB" stop-opacity="0"/>
</radialGradient>
<radialGradient id="paint3_radial_154_24" cx="0" cy="0" r="1" gradientUnits="userSpaceOnUse" gradientTransform="translate(7 7.5) rotate(-35.5377) scale(4.30116 2.49206)">
<stop stop-color="#171155"/>
<stop offset="1" stop-color="#4A43CB" stop-opacity="0"/>
</radialGradient>
<radialGradient id="paint4_radial_154_24" cx="0" cy="0" r="1" gradientUnits="userSpaceOnUse" gradientTransform="translate(5 9) rotate(-45) scale(2.82843 1.41421)">
<stop stop-color="#171155"/>
<stop offset="1" stop-color="#4A43CB" stop-opacity="0"/>
</radialGradient>
<linearGradient id="paint5_linear_154_24" x1="4.95703" y1="4.27192" x2="7.07303" y2="11.6779" gradientUnits="userSpaceOnUse">
<stop stop-color="#FFE06B"/>
<stop offset="1" stop-color="#FF835C"/>
</linearGradient>
</defs>
</svg>
