<svg width="16" height="15" viewBox="0 0 16 15" fill="none" xmlns="http://www.w3.org/2000/svg">
<path d="M5 9H11V15H5V9Z" fill="url(#paint0_linear_154_61)"/>
<path d="M9.003 1.38372C8.72768 1.13635 8.37062 0.999512 8.0005 0.999512C7.63038 0.999512 7.27332 1.13635 6.998 1.38372L1.498 6.32572C1.34132 6.46637 1.216 6.63843 1.1302 6.8307C1.04439 7.02298 1.00003 7.23117 1 7.44172V13.4957C1 13.8935 1.15804 14.2751 1.43934 14.5564C1.72064 14.8377 2.10218 14.9957 2.5 14.9957H4V14.9997H6V9.49572C6 9.36311 6.05268 9.23593 6.14645 9.14217C6.24021 9.0484 6.36739 8.99572 6.5 8.99572H9.5C9.63261 8.99572 9.75979 9.0484 9.85355 9.14217C9.94732 9.23593 10 9.36311 10 9.49572V14.9997H13V14.9957H13.5C13.8978 14.9957 14.2794 14.8377 14.5607 14.5564C14.842 14.2751 15 13.8935 15 13.4957V7.44172C15.0001 7.23124 14.9559 7.0231 14.8703 6.83083C14.7846 6.63856 14.6595 6.46646 14.503 6.32572L9.003 1.38372Z" fill="url(#paint1_linear_154_61)"/>
<path fill-rule="evenodd" clip-rule="evenodd" d="M8.64398 0.238879C8.46495 0.0844618 8.2364 -0.000488281 7.99998 -0.000488281C7.76356 -0.000488281 7.535 0.0844618 7.35598 0.238879L0.325977 6.34188C0.23081 6.42331 0.152992 6.52305 0.097155 6.63516C0.0413176 6.74728 0.00860078 6.86948 0.000950494 6.9945C-0.00669979 7.11952 0.0108728 7.24479 0.0526232 7.36288C0.0943736 7.48097 0.159449 7.58945 0.243977 7.68188C0.417178 7.87034 0.656938 7.98398 0.912473 7.99872C1.16801 8.01347 1.41925 7.92816 1.61298 7.76088L7.99998 2.21588L14.387 7.76088C14.5808 7.92804 14.8321 8.01317 15.0877 7.99824C15.3432 7.98331 15.5829 7.86948 15.756 7.68088C15.8403 7.58847 15.9053 7.48006 15.947 7.36206C15.9886 7.24407 16.0061 7.11891 15.9985 6.99402C15.9908 6.86912 15.9582 6.74704 15.9024 6.63501C15.8467 6.52298 15.769 6.4233 15.674 6.34188L8.64398 0.238879Z" fill="url(#paint2_linear_154_61)"/>
<path fill-rule="evenodd" clip-rule="evenodd" d="M7.35595 0.238937C7.53491 0.0847872 7.76326 0 7.99945 0C8.23565 0 8.46399 0.0847872 8.64295 0.238937L15.674 6.34194C16.074 6.68994 16.111 7.28894 15.756 7.68194C15.5828 7.8704 15.343 7.98403 15.0875 7.99878C14.8319 8.01353 14.5807 7.92822 14.387 7.76094L7.99995 2.21594L1.61295 7.76094C1.4191 7.9281 1.16778 8.01323 0.912245 7.9983C0.656706 7.98336 0.417018 7.86954 0.243953 7.68094C0.159581 7.58853 0.0946373 7.48011 0.0529779 7.36212C0.0113185 7.24413 -0.00620723 7.11897 0.00144137 6.99407C0.00908996 6.86918 0.041757 6.74709 0.0975026 6.63507C0.153248 6.52304 0.230936 6.42336 0.325953 6.34194L7.35595 0.238937Z" fill="url(#paint3_linear_154_61)"/>
<defs>
<linearGradient id="paint0_linear_154_61" x1="8" y1="9" x2="4.633" y2="16.485" gradientUnits="userSpaceOnUse">
<stop stop-color="#944600"/>
<stop offset="1" stop-color="#CD8E02"/>
</linearGradient>
<linearGradient id="paint1_linear_154_61" x1="2.336" y1="0.314719" x2="16.074" y2="11.4807" gradientUnits="userSpaceOnUse">
<stop stop-color="#FFD394"/>
<stop offset="1" stop-color="#FFB357"/>
</linearGradient>
<linearGradient id="paint2_linear_154_61" x1="5.41498" y1="-1.90012" x2="8.92898" y2="7.60388" gradientUnits="userSpaceOnUse">
<stop stop-color="#FF921F"/>
<stop offset="1" stop-color="#EB4824"/>
</linearGradient>
<linearGradient id="paint3_linear_154_61" x1="5.41495" y1="-1.90006" x2="8.92895" y2="7.60394" gradientUnits="userSpaceOnUse">
<stop stop-color="#FF921F"/>
<stop offset="1" stop-color="#EB4824"/>
</linearGradient>
</defs>
</svg>
