<svg xmlns="http://www.w3.org/2000/svg" aria-hidden="true" style="position:absolute;width:0;height:0;overflow:hidden">
  <defs>
    <symbol id="icon-burger" viewBox="0 0 49 32">
      <path stroke-linecap="round" stroke-linejoin="round" stroke-width="3.765" d="M3.294 16h42.353M3.294 1.882h42.353M3.294 30.118h42.353"/>
    </symbol>
    <symbol id="icon-ph-faq" viewBox="0 0 32 32">
      <path d="M17.882 5.647a12.242 12.242 0 0 1 10.556 6.043 12.24 12.24 0 0 1 .127 12.162l1.498 3.919a1.879 1.879 0 0 1-.368 1.941 1.888 1.888 0 0 1-1.899.544l-4.683-1.312a12.238 12.238 0 0 1-10.596-.068 12.238 12.238 0 0 1-4.184-18.639 12.24 12.24 0 0 1 9.55-4.591z"/>
      <path d="M12.307 0A12.239 12.239 0 0 0 .072 12.108a12.24 12.24 0 0 0 1.555 6.098L.129 22.125a1.879 1.879 0 0 0 .368 1.941 1.888 1.888 0 0 0 1.898.544l4.681-1.312a12.234 12.234 0 0 0 10.53-22.089A12.241 12.241 0 0 0 12.307 0z"/>
      <path d="M12.222 7.577c-.674.132-1.412.568-1.992 1.592-.124.217-.328.376-.569.443s-.498.034-.715-.09c-.217-.124-.376-.328-.443-.569s-.034-.498.09-.715c.83-1.459 2.01-2.263 3.268-2.509a4.575 4.575 0 0 1 3.373.681c.911.602 1.647 1.587 1.67 2.767.024 1.233-.725 2.344-2.106 3.16-.937.555-1.303.932-1.459 1.182-.132.209-.162.401-.162.832a.945.945 0 0 1-.942.941.944.944 0 0 1-.941-.941c0-.512.026-1.15.446-1.826.395-.634 1.071-1.201 2.099-1.807 1.007-.597 1.19-1.165 1.184-1.504-.009-.388-.267-.866-.828-1.235a2.695 2.695 0 0 0-1.973-.403zm.484 12.421a1.41 1.41 0 0 1-.998-2.409 1.41 1.41 0 0 1 1.996 0 1.41 1.41 0 0 1 0 1.996 1.41 1.41 0 0 1-.998.413z"/>
    </symbol>
    <symbol id="icon-ph-gallery" viewBox="0 0 32 32">
      <path d="M6.857 0A6.857 6.857 0 0 0 0 6.857v18.286A6.857 6.857 0 0 0 6.857 32h18.286A6.855 6.855 0 0 0 32 25.143V6.857A6.855 6.855 0 0 0 25.143 0H6.857z"/>
      <path d="M29.993 29.99 18.02 18.02a2.864 2.864 0 0 0-2.021-.838 2.855 2.855 0 0 0-2.021.838L2.01 29.988a6.857 6.857 0 0 0 4.846 2.011h18.286a6.852 6.852 0 0 0 4.85-2.009zM21.714 13.714a3.43 3.43 0 1 0 0-6.859 3.43 3.43 0 0 0 0 6.859z"/>
    </symbol>
    <symbol id="icon-ph-game-desc" viewBox="0 0 32 32">
      <path d="M21.333 19.556H32v6.667A5.778 5.778 0 0 1 26.223 32h-4.889V19.556z"/>
      <path d="M0 4a4.003 4.003 0 0 1 4-4h16.889a4.003 4.003 0 0 1 4 4v28H5.778a5.778 5.778 0 0 1-5.777-5.777V4.001z"/>
      <path d="M6.222 8.444A1.335 1.335 0 0 1 7.556 7.11h9.778a1.335 1.335 0 0 1 .943 2.277c-.25.25-.589.391-.943.391H7.556a1.335 1.335 0 0 1-1.334-1.334z"/>
      <path d="M6.222 8.444A1.335 1.335 0 0 1 7.556 7.11h9.778a1.335 1.335 0 0 1 .943 2.277c-.25.25-.589.391-.943.391H7.556a1.335 1.335 0 0 1-1.334-1.334zM6.222 15.556a1.335 1.335 0 0 1 1.334-1.334h9.778a1.335 1.335 0 0 1 .943 2.277c-.25.25-.589.391-.943.391H7.556a1.335 1.335 0 0 1-1.334-1.334z"/>
      <path d="M6.222 15.556a1.335 1.335 0 0 1 1.334-1.334h9.778a1.335 1.335 0 0 1 .943 2.277c-.25.25-.589.391-.943.391H7.556a1.335 1.335 0 0 1-1.334-1.334zM6.222 22.667a1.335 1.335 0 0 1 1.334-1.334h5.333a1.335 1.335 0 0 1 .943 2.277c-.25.25-.589.391-.943.391H7.556a1.335 1.335 0 0 1-1.334-1.334z"/>
      <path d="M6.222 22.667a1.335 1.335 0 0 1 1.334-1.334h5.333a1.335 1.335 0 0 1 .943 2.277c-.25.25-.589.391-.943.391H7.556a1.335 1.335 0 0 1-1.334-1.334z"/>
    </symbol>
    <symbol id="icon-ph-home" viewBox="0 0 34 32">
      <path d="M10.667 19.2h12.8V32h-12.8V19.2z"/>
      <path d="M19.206 2.952a3.198 3.198 0 0 0-4.278 0L3.195 13.495a3.204 3.204 0 0 0-1.063 2.38V28.79a3.2 3.2 0 0 0 3.2 3.2h3.2v.009h4.267V20.257a1.066 1.066 0 0 1 1.066-1.066h6.4a1.066 1.066 0 0 1 1.066 1.066v11.742h6.4v-.009h1.067a3.2 3.2 0 0 0 3.2-3.2V15.875a3.196 3.196 0 0 0-1.061-2.381L19.204 2.951z"/>
      <path d="M18.441.51a2.105 2.105 0 0 0-2.748 0L.696 13.53a1.986 1.986 0 0 0-.693 1.393 2 2 0 0 0 .518 1.467 2.103 2.103 0 0 0 2.92.169L17.067 4.73l13.626 11.829a2.098 2.098 0 0 0 2.921-.171c.18-.197.319-.428.407-.68s.126-.519.11-.785a1.988 1.988 0 0 0-.692-1.391L18.442.512z"/>
      <path d="M15.693.51a2.104 2.104 0 0 1 2.746 0l15 13.02c.853.742.932 2.02.175 2.859a2.105 2.105 0 0 1-2.92.169L17.068 4.729 3.442 16.558a2.1 2.1 0 0 1-2.921-.171c-.18-.197-.319-.428-.407-.68s-.126-.519-.11-.785a1.988 1.988 0 0 1 .692-1.391L15.693.511z"/>
    </symbol>
    <symbol id="icon-ph-reviews" viewBox="0 0 24 32">
      <path d="M1 26h23s-1 1-1 3 1 2 1 2H3a2 2 0 0 1-2-2v-3z" style="fill:var(--color1, #000)"/>
      <path d="M0 4v24a4.003 4.003 0 0 0 4 4h19a.997.997 0 0 0 1-1 .997.997 0 0 0-1-1H4a2 2 0 0 1-2-2h20a2 2 0 0 0 2-2V4a4.003 4.003 0 0 0-4-4H4a4.003 4.003 0 0 0-4 4z" style="fill:var(--color1, #000)"/>
      <path d="M0 4v24a4.003 4.003 0 0 0 4 4h19a.997.997 0 0 0 1-1 .997.997 0 0 0-1-1H4a2 2 0 0 1-2-2h20a2 2 0 0 0 2-2V4a4.003 4.003 0 0 0-4-4H4a4.003 4.003 0 0 0-4 4z" opacity=".3" style="fill:var(--color1, #000)"/>
      <path d="M0 4v24a4.003 4.003 0 0 0 4 4h19a.997.997 0 0 0 1-1 .997.997 0 0 0-1-1H4a2 2 0 0 1-2-2h20a2 2 0 0 0 2-2V4a4.003 4.003 0 0 0-4-4H4a4.003 4.003 0 0 0-4 4z" opacity=".3" style="fill:var(--color1, #000)"/>
      <path d="M0 4v24a4.003 4.003 0 0 0 4 4h19a.997.997 0 0 0 1-1 .997.997 0 0 0-1-1H4a2 2 0 0 1-2-2h20a2 2 0 0 0 2-2V4a4.003 4.003 0 0 0-4-4H4a4.003 4.003 0 0 0-4 4z" opacity=".3" style="fill:var(--color1, #000)"/>
      <path d="M12.908 6.58a.999.999 0 0 0-1.814 0L9.45 10.12l-3.874.468a1 1 0 0 0-.561 1.726l2.858 2.656-.754 3.83a.994.994 0 0 0 .394 1.001.995.995 0 0 0 1.075.064L12 17.969l3.412 1.896a1 1 0 0 0 1.466-1.066l-.75-3.83 2.86-2.656a1 1 0 0 0-.561-1.726l-3.874-.47-1.644-3.538z" style="fill:var(--color1, #000)"/>
    </symbol>
    <symbol id="icon-bg-title" viewBox="0 0 109 32">
      <path fill="#0c859d" d="M90.481 26.265V32l6.396-5.735h-6.396zM18.705 32v-5.735h-6.391L18.705 32z" style="fill:var(--color2, #0c859d)"/>
      <path fill="#a20e30" d="M90.481 19.812H18.704v6.453h71.777v-6.453z" style="fill:var(--color3, #a20e30)"/>
      <path fill="#03b5d9" d="M109.191 5.731H0l5.986 13.137L0 32h18.705l-6.391-5.735h6.391v-6.453h71.777v6.453h6.396L90.482 32h18.709l-5.985-13.132 5.985-13.137z" style="fill:var(--color4, #03b5d9)"/>
      <path fill="#38c7e4" d="M96.877 0H12.314v26.265h84.563V0z" style="fill:var(--color5, #38c7e4)"/>
    </symbol>
    <symbol id="icon-btn-arrow" viewBox="0 0 21 32">
      <path stroke-linecap="round" stroke-linejoin="round" stroke-width="5.333" d="M17.333 29.333 4 16 17.333 2.667"/>
    </symbol>
    <symbol id="icon-logo" viewBox="0 0 30 32">
      <path d="M0 3.938h30.031v24.123H0V3.938z"/>
    </symbol>
  </defs>
</svg>
