<svg aria-hidden="true" style="position: absolute; width: 0; height: 0; overflow: hidden;" version="1.1" xmlns="http://www.w3.org/2000/svg" xmlns:xlink="http://www.w3.org/1999/xlink">
<defs>
<symbol id="icon-burger" viewBox="0 0 49 32">
<path stroke-linejoin="round" stroke-linecap="round" stroke-miterlimit="4" stroke-width="3.7647" d="M3.294 16h42.353M3.294 1.882h42.353M3.294 30.118h42.353"></path>
</symbol>
<symbol id="icon-ph-faq" viewBox="0 0 32 32">
<path d="M17.882 5.647c2.134-0 4.23 0.557 6.082 1.617s3.394 2.586 4.474 4.426c1.080 1.84 1.659 3.931 1.682 6.064s-0.514 4.236-1.555 6.098l1.498 3.919c0.125 0.326 0.156 0.68 0.091 1.023s-0.224 0.661-0.459 0.918-0.537 0.445-0.872 0.541c-0.335 0.096-0.691 0.097-1.027 0.003l-4.683-1.312c-1.658 0.784-3.471 1.184-5.306 1.173s-3.642-0.436-5.29-1.241-3.094-1.97-4.231-3.409c-1.137-1.439-1.936-3.115-2.338-4.905s-0.396-3.647 0.017-5.434 1.222-3.459 2.368-4.891c1.146-1.432 2.599-2.588 4.252-3.383s3.463-1.208 5.298-1.208z"></path>
<path d="M12.307 0c-2.133-0-4.23 0.558-6.081 1.618s-3.393 2.586-4.473 4.426c-1.080 1.84-1.659 3.931-1.681 6.064s0.514 4.236 1.555 6.098l-1.498 3.919c-0.125 0.326-0.156 0.68-0.091 1.023s0.224 0.661 0.459 0.918 0.537 0.445 0.872 0.541c0.335 0.096 0.691 0.097 1.026 0.003l4.681-1.312c1.658 0.783 3.471 1.184 5.305 1.173s3.642-0.436 5.29-1.24 3.094-1.97 4.231-3.409c1.137-1.439 1.936-3.115 2.338-4.905s0.396-3.646-0.016-5.433-1.221-3.458-2.367-4.891c-1.146-1.432-2.599-2.589-4.251-3.384s-3.465-1.208-5.299-1.209z"></path>
<path d="M12.222 7.577c-0.674 0.132-1.412 0.568-1.992 1.592-0.124 0.217-0.328 0.376-0.569 0.443s-0.498 0.034-0.715-0.090c-0.217-0.124-0.376-0.328-0.443-0.569s-0.034-0.498 0.090-0.715c0.83-1.459 2.010-2.263 3.268-2.509 1.17-0.221 2.38 0.024 3.373 0.681 0.911 0.602 1.647 1.587 1.67 2.767 0.024 1.233-0.725 2.344-2.106 3.16-0.937 0.555-1.303 0.932-1.459 1.182-0.132 0.209-0.162 0.401-0.162 0.832 0 0.25-0.099 0.489-0.276 0.665s-0.416 0.276-0.666 0.276c-0.25 0-0.489-0.099-0.665-0.276s-0.276-0.416-0.276-0.665c0-0.512 0.026-1.15 0.446-1.826 0.395-0.634 1.071-1.201 2.099-1.807 1.007-0.597 1.19-1.165 1.184-1.504-0.009-0.388-0.267-0.866-0.828-1.235-0.581-0.384-1.288-0.529-1.973-0.403zM12.706 19.998c-0.374 0-0.733-0.149-0.998-0.413s-0.413-0.624-0.413-0.998c0-0.374 0.149-0.733 0.413-0.998s0.624-0.413 0.998-0.413c0.374 0 0.733 0.149 0.998 0.413s0.413 0.624 0.413 0.998c0 0.375-0.149 0.733-0.413 0.998s-0.624 0.413-0.998 0.413z"></path>
</symbol>
<symbol id="icon-ph-gallery" viewBox="0 0 32 32">
<path d="M6.857 0c-1.819 0-3.563 0.722-4.849 2.008s-2.008 3.030-2.008 4.849v18.286c0 1.819 0.722 3.563 2.008 4.849s3.030 2.008 4.849 2.008h18.286c1.819 0 3.563-0.723 4.849-2.008s2.008-3.030 2.008-4.849v-18.286c0-1.819-0.723-3.563-2.008-4.849s-3.030-2.008-4.849-2.008h-18.286z"></path>
<path d="M29.993 29.99l-11.973-11.97c-0.265-0.265-0.58-0.476-0.927-0.62s-0.718-0.218-1.094-0.218c-0.375 0-0.747 0.074-1.094 0.218s-0.662 0.354-0.927 0.62l-11.968 11.968c1.285 1.286 3.028 2.010 4.846 2.011h18.286c0.901 0 1.793-0.177 2.625-0.522s1.588-0.85 2.225-1.487z"></path>
<path d="M21.714 13.714c1.893 0 3.429-1.535 3.429-3.429s-1.535-3.429-3.429-3.429c-1.894 0-3.429 1.535-3.429 3.429s1.535 3.429 3.429 3.429z"></path>
</symbol>
<symbol id="icon-ph-game-desc" viewBox="0 0 32 32">
<path d="M21.333 19.556h10.667v6.667c0 1.532-0.609 3.002-1.692 4.085s-2.553 1.692-4.085 1.692h-4.889v-12.444z"></path>
<path d="M0 4c0-1.061 0.421-2.078 1.172-2.828s1.768-1.172 2.828-1.172h16.889c1.061 0 2.078 0.421 2.828 1.172s1.172 1.768 1.172 2.828v28h-19.111c-1.532 0-3.002-0.609-4.085-1.692s-1.692-2.553-1.692-4.085v-22.222z"></path>
<path d="M6.222 8.444c0-0.354 0.14-0.693 0.391-0.943s0.589-0.391 0.943-0.391h9.778c0.354 0 0.693 0.14 0.943 0.391s0.391 0.589 0.391 0.943-0.14 0.693-0.391 0.943c-0.25 0.25-0.589 0.391-0.943 0.391h-9.778c-0.354 0-0.693-0.14-0.943-0.391s-0.391-0.589-0.391-0.943z"></path>
<path d="M6.222 8.444c0-0.354 0.14-0.693 0.391-0.943s0.589-0.391 0.943-0.391h9.778c0.354 0 0.693 0.14 0.943 0.391s0.391 0.589 0.391 0.943-0.14 0.693-0.391 0.943c-0.25 0.25-0.589 0.391-0.943 0.391h-9.778c-0.354 0-0.693-0.14-0.943-0.391s-0.391-0.589-0.391-0.943z"></path>
<path d="M6.222 15.556c0-0.354 0.14-0.693 0.391-0.943s0.589-0.391 0.943-0.391h9.778c0.354 0 0.693 0.14 0.943 0.391s0.391 0.589 0.391 0.943-0.14 0.693-0.391 0.943c-0.25 0.25-0.589 0.391-0.943 0.391h-9.778c-0.354 0-0.693-0.14-0.943-0.391s-0.391-0.589-0.391-0.943z"></path>
<path d="M6.222 15.556c0-0.354 0.14-0.693 0.391-0.943s0.589-0.391 0.943-0.391h9.778c0.354 0 0.693 0.14 0.943 0.391s0.391 0.589 0.391 0.943-0.14 0.693-0.391 0.943c-0.25 0.25-0.589 0.391-0.943 0.391h-9.778c-0.354 0-0.693-0.14-0.943-0.391s-0.391-0.589-0.391-0.943z"></path>
<path d="M6.222 22.667c0-0.354 0.14-0.693 0.391-0.943s0.589-0.391 0.943-0.391h5.333c0.354 0 0.693 0.14 0.943 0.391s0.391 0.589 0.391 0.943-0.14 0.693-0.391 0.943c-0.25 0.25-0.589 0.391-0.943 0.391h-5.333c-0.354 0-0.693-0.14-0.943-0.391s-0.391-0.589-0.391-0.943z"></path>
<path d="M6.222 22.667c0-0.354 0.14-0.693 0.391-0.943s0.589-0.391 0.943-0.391h5.333c0.354 0 0.693 0.14 0.943 0.391s0.391 0.589 0.391 0.943-0.14 0.693-0.391 0.943c-0.25 0.25-0.589 0.391-0.943 0.391h-5.333c-0.354 0-0.693-0.14-0.943-0.391s-0.391-0.589-0.391-0.943z"></path>
</symbol>
<symbol id="icon-ph-home" viewBox="0 0 34 32">
<path d="M10.667 19.2h12.8v12.8h-12.8v-12.8z"></path>
<path d="M19.206 2.952c-0.587-0.528-1.349-0.82-2.139-0.82s-1.551 0.292-2.139 0.82l-11.733 10.543c-0.334 0.3-0.602 0.667-0.785 1.077s-0.278 0.854-0.278 1.303v12.915c0 0.849 0.337 1.663 0.937 2.263s1.414 0.937 2.263 0.937h3.2v0.009h4.267v-11.742c0-0.283 0.112-0.554 0.312-0.754s0.471-0.312 0.754-0.312h6.4c0.283 0 0.554 0.112 0.754 0.312s0.312 0.471 0.312 0.754v11.742h6.4v-0.009h1.067c0.849 0 1.663-0.337 2.263-0.937s0.937-1.414 0.937-2.263v-12.915c0-0.449-0.094-0.893-0.277-1.303s-0.45-0.777-0.784-1.078l-11.733-10.543z"></path>
<path d="M18.441 0.51c-0.382-0.329-0.869-0.511-1.374-0.511s-0.992 0.181-1.374 0.511l-14.997 13.020c-0.203 0.174-0.369 0.386-0.488 0.626s-0.189 0.5-0.205 0.767c-0.016 0.267 0.021 0.534 0.11 0.786s0.228 0.483 0.408 0.681c0.369 0.402 0.881 0.644 1.426 0.676s1.081-0.151 1.494-0.507l13.626-11.829 13.626 11.829c0.413 0.357 0.95 0.538 1.495 0.506s1.056-0.275 1.426-0.677c0.18-0.197 0.319-0.428 0.407-0.68s0.126-0.519 0.11-0.785c-0.016-0.266-0.086-0.527-0.205-0.766s-0.285-0.452-0.487-0.625l-14.997-13.020z"></path>
<path d="M15.693 0.51c0.382-0.329 0.869-0.51 1.373-0.51s0.991 0.181 1.373 0.51l15 13.020c0.853 0.742 0.932 2.020 0.175 2.859-0.37 0.402-0.881 0.644-1.426 0.676s-1.081-0.151-1.494-0.507l-13.626-11.829-13.626 11.829c-0.414 0.357-0.95 0.538-1.495 0.506s-1.056-0.275-1.426-0.677c-0.18-0.197-0.319-0.428-0.407-0.68s-0.126-0.519-0.11-0.785c0.016-0.266 0.086-0.527 0.205-0.766s0.285-0.452 0.487-0.625l14.997-13.020z"></path>
</symbol>
<symbol id="icon-ph-reviews" viewBox="0 0 24 32">
<path fill="#000" style="fill: var(--color1, #000)" d="M1 26h23c0 0-1 1-1 3s1 2 1 2h-21c-0.53 0-1.039-0.211-1.414-0.586s-0.586-0.884-0.586-1.414v-3z"></path>
<path fill="#000" style="fill: var(--color1, #000)" d="M0 4v24c0 1.061 0.421 2.078 1.172 2.828s1.768 1.172 2.828 1.172h19c0.265 0 0.52-0.105 0.707-0.293s0.293-0.442 0.293-0.707-0.105-0.52-0.293-0.707c-0.188-0.187-0.442-0.293-0.707-0.293h-19c-0.53 0-1.039-0.211-1.414-0.586s-0.586-0.884-0.586-1.414h20c0.53 0 1.039-0.211 1.414-0.586s0.586-0.884 0.586-1.414v-22c0-1.061-0.421-2.078-1.172-2.828s-1.768-1.172-2.828-1.172h-16c-1.061 0-2.078 0.421-2.828 1.172s-1.172 1.768-1.172 2.828z"></path>
<path fill="#000" style="fill: var(--color1, #000)" opacity="0.3" d="M0 4v24c0 1.061 0.421 2.078 1.172 2.828s1.768 1.172 2.828 1.172h19c0.265 0 0.52-0.105 0.707-0.293s0.293-0.442 0.293-0.707-0.105-0.52-0.293-0.707c-0.188-0.187-0.442-0.293-0.707-0.293h-19c-0.53 0-1.039-0.211-1.414-0.586s-0.586-0.884-0.586-1.414h20c0.53 0 1.039-0.211 1.414-0.586s0.586-0.884 0.586-1.414v-22c0-1.061-0.421-2.078-1.172-2.828s-1.768-1.172-2.828-1.172h-16c-1.061 0-2.078 0.421-2.828 1.172s-1.172 1.768-1.172 2.828z"></path>
<path fill="#000" style="fill: var(--color1, #000)" opacity="0.3" d="M0 4v24c0 1.061 0.421 2.078 1.172 2.828s1.768 1.172 2.828 1.172h19c0.265 0 0.52-0.105 0.707-0.293s0.293-0.442 0.293-0.707-0.105-0.52-0.293-0.707c-0.188-0.187-0.442-0.293-0.707-0.293h-19c-0.53 0-1.039-0.211-1.414-0.586s-0.586-0.884-0.586-1.414h20c0.53 0 1.039-0.211 1.414-0.586s0.586-0.884 0.586-1.414v-22c0-1.061-0.421-2.078-1.172-2.828s-1.768-1.172-2.828-1.172h-16c-1.061 0-2.078 0.421-2.828 1.172s-1.172 1.768-1.172 2.828z"></path>
<path fill="#000" style="fill: var(--color1, #000)" opacity="0.3" d="M0 4v24c0 1.061 0.421 2.078 1.172 2.828s1.768 1.172 2.828 1.172h19c0.265 0 0.52-0.105 0.707-0.293s0.293-0.442 0.293-0.707-0.105-0.52-0.293-0.707c-0.188-0.187-0.442-0.293-0.707-0.293h-19c-0.53 0-1.039-0.211-1.414-0.586s-0.586-0.884-0.586-1.414h20c0.53 0 1.039-0.211 1.414-0.586s0.586-0.884 0.586-1.414v-22c0-1.061-0.421-2.078-1.172-2.828s-1.768-1.172-2.828-1.172h-16c-1.061 0-2.078 0.421-2.828 1.172s-1.172 1.768-1.172 2.828z"></path>
<path fill="#000" style="fill: var(--color1, #000)" d="M12.908 6.58c-0.080-0.173-0.208-0.319-0.369-0.422s-0.347-0.157-0.538-0.157c-0.191 0-0.377 0.054-0.538 0.157s-0.289 0.249-0.369 0.422l-1.644 3.54-3.874 0.468c-0.189 0.023-0.368 0.099-0.516 0.221s-0.257 0.282-0.316 0.463c-0.059 0.181-0.065 0.376-0.017 0.561s0.148 0.352 0.288 0.481l2.858 2.656-0.754 3.83c-0.037 0.187-0.019 0.381 0.051 0.558s0.189 0.331 0.343 0.443c0.154 0.112 0.337 0.178 0.528 0.189s0.38-0.032 0.547-0.125l3.412-1.896 3.412 1.896c0.167 0.092 0.356 0.135 0.546 0.123s0.373-0.077 0.527-0.189 0.273-0.265 0.342-0.443c0.070-0.177 0.087-0.37 0.051-0.557l-0.75-3.83 2.86-2.656c0.14-0.13 0.24-0.297 0.288-0.482s0.042-0.379-0.017-0.561c-0.059-0.181-0.169-0.342-0.316-0.463s-0.327-0.197-0.516-0.22l-3.874-0.47-1.644-3.538z"></path>
</symbol>
<symbol id="icon-bg-title" viewBox="0 0 109 32">
<path fill="#0c859d" style="fill: var(--color2, #0c859d)" d="M90.481 26.265v5.735l6.396-5.735h-6.396z"></path>
<path fill="#0c859d" style="fill: var(--color2, #0c859d)" d="M18.705 32v-5.735h-6.391l6.391 5.735z"></path>
<path fill="#a20e30" style="fill: var(--color3, #a20e30)" d="M90.481 19.812h-71.777v6.453h71.777v-6.453z"></path>
<path fill="#03b5d9" style="fill: var(--color4, #03b5d9)" d="M109.191 5.731h-109.191l5.986 13.137-5.986 13.132h18.705l-6.391-5.735h6.391v-6.453h71.777v6.453h6.396l-6.396 5.735h18.709l-5.985-13.132 5.985-13.137z"></path>
<path fill="#38c7e4" style="fill: var(--color5, #38c7e4)" d="M96.877 0h-84.563v26.265h84.563v-26.265z"></path>
</symbol>
<symbol id="icon-btn-arrow" viewBox="0 0 21 32">
<path stroke-linejoin="round" stroke-linecap="round" stroke-miterlimit="4" stroke-width="5.3333" d="M17.333 29.333l-13.333-13.333 13.333-13.333"></path>
</symbol>
<symbol id="icon-logo" viewBox="0 0 30 32">
<path d="M0 3.938h30.031v24.123h-30.031v-24.123z"></path>
</symbol>
</defs>
</svg>
